<?xml version="1.0" standalone="no"?>
<!DOCTYPE svg PUBLIC "-//W3C//DTD SVG 20010904//EN"
 "http://www.w3.org/TR/2001/REC-SVG-20010904/DTD/svg10.dtd">
<svg version="1.0" xmlns="http://www.w3.org/2000/svg"
 width="1280.000000pt" height="1280.000000pt" viewBox="0 0 1280.000000 1280.000000"
 preserveAspectRatio="xMidYMid meet">
<metadata>
Created by potrace 1.11, written by Peter Selinger 2001-2013
</metadata>
<g transform="translate(0.000000,1280.000000) scale(0.100000,-0.100000)"
fill="#000000" stroke="none">
<path d="M6557 10592 l-27 -3 2 -4117 3 -4117 1335 0 1335 0 0 878 c1 634 4
880 12 885 9 6 160 7 319 3 29 -1 31 -5 53 -73 46 -151 123 -395 141 -448 10
-30 46 -143 80 -250 34 -107 79 -249 100 -315 21 -66 57 -181 81 -255 23 -74
63 -200 88 -280 l47 -145 1337 0 c1332 0 1337 0 1330 20 -3 11 -9 34 -14 50
-4 17 -39 136 -78 265 -39 129 -81 267 -92 305 -12 39 -26 86 -32 105 -6 19
-12 37 -12 40 -1 3 -9 32 -19 65 -10 33 -20 67 -21 75 -2 8 -4 15 -5 15 -1 0
-3 7 -5 15 -2 8 -79 265 -170 570 -182 605 -233 775 -275 920 -32 106 -106
355 -150 500 -57 188 -55 171 -32 241 11 35 30 98 42 139 12 41 27 91 33 110
6 19 12 40 13 45 4 14 28 95 59 200 14 50 37 126 50 170 13 44 49 166 80 270
31 105 61 204 65 220 10 36 29 99 65 220 15 50 28 97 30 105 2 8 42 144 89
302 47 158 101 341 120 405 19 65 71 238 114 385 49 166 75 268 68 271 -6 2
-598 3 -1315 3 -1148 -1 -1305 -3 -1312 -16 -5 -8 -54 -179 -109 -380 -56
-201 -107 -387 -115 -415 -34 -119 -155 -551 -160 -575 -2 -8 -37 -134 -77
-280 l-74 -265 -174 -3 -175 -2 0 2070 c1 1860 -1 2070 -15 2071 -50 2 -2610
3 -2633 1z"/>
<path d="M2947 8544 c-1 -1 -81 -5 -177 -9 -96 -4 -193 -8 -215 -10 -70 -4
-209 -16 -235 -20 -14 -2 -61 -6 -105 -10 -44 -3 -98 -8 -120 -11 -22 -3 -51
-7 -65 -9 -14 -2 -50 -7 -80 -10 -30 -3 -66 -8 -80 -10 -14 -2 -45 -7 -70 -10
-38 -5 -311 -48 -375 -59 -11 -2 -38 -7 -60 -11 -22 -4 -49 -9 -60 -11 -85
-16 -391 -78 -435 -89 -30 -8 -66 -16 -80 -19 -14 -2 -47 -10 -75 -16 -27 -6
-57 -13 -65 -15 -8 -2 -99 -24 -202 -50 l-186 -47 3 -77 c2 -42 6 -166 10
-276 3 -110 8 -254 10 -320 8 -226 16 -485 30 -935 4 -107 8 -198 11 -201 2
-4 14 -6 26 -4 23 5 83 10 213 20 39 3 86 8 105 10 19 2 69 7 110 11 41 3 82
7 90 9 8 1 56 6 105 10 50 4 97 8 105 10 8 1 56 6 105 10 50 4 106 8 125 10
19 2 85 6 145 10 61 4 126 8 145 10 31 3 121 8 350 20 447 23 1073 26 1175 6
201 -40 265 -99 265 -244 l0 -75 -87 -2 c-49 -1 -115 -3 -148 -5 -33 -1 -134
-6 -225 -9 -260 -10 -548 -24 -660 -31 -127 -9 -312 -25 -350 -30 -14 -2 -65
-9 -115 -15 -127 -16 -151 -19 -235 -35 -41 -8 -89 -17 -107 -20 -73 -12 -296
-69 -398 -102 -133 -43 -324 -120 -346 -139 -8 -8 -19 -14 -24 -14 -5 0 -41
-19 -79 -42 -355 -209 -553 -588 -603 -1153 -15 -161 -8 -581 12 -710 2 -16 7
-48 9 -70 13 -110 78 -387 105 -450 5 -11 19 -45 31 -75 49 -123 150 -299 219
-382 94 -115 215 -222 344 -306 68 -43 278 -152 295 -152 4 0 37 -11 73 -26
119 -47 390 -109 559 -128 25 -3 72 -9 105 -13 33 -4 197 -7 365 -8 318 0 440
6 600 30 14 2 61 9 105 15 44 7 87 13 95 15 355 70 617 157 898 298 l103 52
20 -25 c53 -66 130 -136 189 -170 118 -70 337 -153 475 -180 28 -5 61 -12 75
-15 69 -14 175 -20 360 -20 209 0 309 7 490 30 19 2 60 7 90 10 30 3 66 8 80
10 14 2 50 7 80 10 30 4 66 8 80 10 14 2 75 11 135 20 61 8 126 18 145 21 19
3 52 7 73 10 21 3 46 7 55 9 9 2 22 4 29 4 7 1 11 22 11 59 0 31 3 183 7 337
9 398 13 594 20 970 l7 331 -58 18 c-60 19 -173 73 -208 99 -19 14 -20 40 -22
1273 -1 693 -4 1270 -7 1284 -3 14 -8 55 -12 92 -3 37 -8 77 -10 90 -2 13 -9
50 -14 83 -12 74 -16 89 -36 168 -9 34 -18 69 -20 77 -6 27 -46 144 -62 180
-100 222 -172 333 -305 471 -133 137 -228 201 -498 334 -175 86 -575 202 -840
245 -110 17 -123 19 -148 24 -13 3 -58 8 -100 12 -42 3 -79 8 -82 9 -3 2 -43
6 -90 10 -47 4 -101 8 -120 10 -133 12 -763 28 -773 19z m443 -4098 l0 -222
-57 -40 c-128 -90 -259 -135 -390 -135 -148 0 -240 68 -259 191 -28 172 22
302 138 361 65 33 101 38 403 55 66 3 121 7 122 8 1 1 11 2 23 3 20 2 20 -3
20 -221z"/>
</g>
</svg>
